# xmcd
#
# Track frame offsets:
#	150
#	22287
#	41070
#	58184
#	73096
#	94056
#	109025
#	130903
#	143883
#	161108
#	174571
#	189277
#	213930
#	233828
#	246259
#	265372
#
# Disc length: 3796 seconds
#
# Revision: 3
# Processed by: cddbd v1.5.1PL0 Copyright (c) Steve Scherf et al.
# Submitted via: dBpowerAMP V4.0
#
DISCID=f10ed210
DTITLE=Various Artist - Hardcore to the bone  5 Cd 1
DYEAR=2002
DGENRE=HARDCORE
TTITLE0=Be Hurt - The Viper
TTITLE1=The Drummer and The Dancer - The Stunned Guys
TTITLE2=Back In The House - Evil Activities vs Chaosphere
TTITLE3=Apocalypse - Knightvision and D'Spyre
TTITLE4=U.F.B. - DJ Kristoff vs Bad Boy
TTITLE5=State of Emergency - Evil Activities vs. Chaosphere
TTITLE6=Stomp - The Masochist
TTITLE7=Bloody Mary - DJ Nosferatu
TTITLE8=The World is Mine - Catscan
TTITLE9=Don't Stop - Sinergy
TTITLE10=Blow Ya To Pieces - Scott Brown
TTITLE11=Pandemonia (The Headbanger Remix) - RTC and The Headbanger
TTITLE12=Demon Seed - Omar Santana
TTITLE13=Deeper (DJ Niel Remix) - Sons of Aliens
TTITLE14=Tha Bounce - Tha Playah
TTITLE15=Messin' With Yo Mind - DJ Promo
EXTD=
EXTT0=
EXTT1=
EXTT2=
EXTT3=
EXTT4=
EXTT5=
EXTT6=
EXTT7=
EXTT8=
EXTT9=
EXTT10=
EXTT11=
EXTT12=
EXTT13=
EXTT14=
EXTT15=
PLAYORDER=
